<svg width="40" height="40" viewBox="0 0 40 40" fill="none" xmlns="http://www.w3.org/2000/svg">
<path d="M20 0C8.9543 0 0 8.9543 0 20C0 31.0457 8.9543 40 20 40C31.0457 40 40 31.0457 40 20C40 8.9543 31.0457 0 20 0ZM21.3721 8.667C26.7232 8.667 31.0596 13.0059 31.0596 18.3569C31.0596 23.708 26.7232 28.0444 21.3721 28.0444C19.7527 28.0444 18.2265 27.6483 16.8848 26.9458C16.8861 26.952 16.8883 26.9592 16.8896 26.9653L12.5195 31.333L8.94043 27.7515L13.1543 23.5352C13.1613 23.532 13.1693 23.5309 13.1763 23.5278C12.23 22.0314 11.6821 20.2582 11.6821 18.3569C11.6821 13.0058 16.021 8.667 21.3721 8.667V8.667ZM21.3721 12.9712C18.3983 12.9712 15.9863 15.3832 15.9863 18.3569C15.9863 21.3307 18.3983 23.7402 21.3721 23.7402C24.3459 23.7402 26.7554 21.3307 26.7554 18.3569C26.7554 15.3832 24.3459 12.9712 21.3721 12.9712Z" fill="#8A8B8F"/>
</svg>
